<svg width="162" height="54" viewBox="0 0 162 54" fill="none" xmlns="http://www.w3.org/2000/svg">
<path d="M4.33032 10.2909C4.33032 6.97718 7.01661 4.29089 10.3303 4.29089H151.33C154.644 4.29089 157.33 6.97719 157.33 10.2909V43.2909C157.33 46.6046 154.644 49.2909 151.33 49.2909H10.3303C7.01661 49.2909 4.33032 46.6046 4.33032 43.2909V10.2909Z" fill="#FEEFEC"/>
<mask id="mask0_25_25570" style="mask-type:alpha" maskUnits="userSpaceOnUse" x="0" y="0" width="162" height="54">
<rect width="162" height="54" fill="#C4C4C4"/>
</mask>
<g mask="url(#mask0_25_25570)">
<path d="M25.972 4.21403C30.2012 2.41347 34.8014 5.84225 34.2842 10.4096L31.7019 33.2148C31.1809 37.8153 25.8664 40.1173 22.1542 37.3504L3.61979 23.5355C-0.0924102 20.7686 0.595243 15.0179 4.85518 13.2043L25.972 4.21403Z" fill="#F78B64"/>
</g>
<path d="M34.6531 23.769C34.1737 19.0708 30.674 16.3862 25.928 16.3862C20.6929 16.3862 16.6179 19.9817 16.6179 26.4728C16.6179 32.9352 20.597 36.5595 25.928 36.5595C31.3164 36.5595 34.2983 32.8968 34.6531 29.4164L29.8591 29.3876C29.5235 31.2765 28.1044 32.3983 26.0238 32.3983C23.2241 32.3983 21.4599 30.3752 21.4599 26.4728C21.4599 22.7239 23.1858 20.5474 26.0526 20.5474C28.2099 20.5474 29.6194 21.8034 29.8591 23.769H34.6531ZM43.7936 36.5691C48.4246 36.5691 51.2339 33.5105 51.2339 28.9753C51.2339 24.4306 48.4246 21.372 43.7936 21.372C39.1625 21.372 36.3532 24.4306 36.3532 28.9753C36.3532 33.5105 39.1625 36.5691 43.7936 36.5691ZM43.8223 33.0311C42.0869 33.0311 41.1281 31.3819 41.1281 28.9466C41.1281 26.5016 42.0869 24.8429 43.8223 24.8429C45.5002 24.8429 46.459 26.5016 46.459 28.9466C46.459 31.3819 45.5002 33.0311 43.8223 33.0311ZM62.6875 29.9341C62.6875 31.6504 61.5944 32.6092 60.2042 32.6092C58.766 32.6092 57.8839 31.6312 57.8743 30.03V21.5637H53.1857V30.9505C53.1953 34.2775 55.2184 36.4828 58.2482 36.4828C60.4535 36.4828 62.093 35.3514 62.745 33.5488H62.8984V36.291H67.3665V21.5637H62.6875V29.9341ZM69.9007 36.291H74.5893V28.2946C74.5893 26.54 75.8358 25.3606 77.5137 25.3606C78.0698 25.3606 78.9039 25.4565 79.3546 25.6099V21.535C78.9615 21.4295 78.4725 21.3624 78.041 21.3624C76.4302 21.3624 75.1454 22.302 74.6085 24.2484H74.4551V21.5637H69.9007V36.291ZM93.6726 26.0605C93.4233 23.1458 91.0359 21.372 87.0473 21.372C83.0586 21.372 80.5178 23.1074 80.537 26.0605C80.5178 28.3233 81.9656 29.7807 84.9091 30.3272L87.4787 30.8162C88.6964 31.0559 89.2525 31.4395 89.2717 32.0914C89.2525 32.8297 88.4279 33.3187 87.2294 33.3187C85.8967 33.3187 84.9954 32.7434 84.7941 31.6696L80.163 31.7846C80.4986 34.6994 83.0011 36.5691 87.2102 36.5691C91.1509 36.5691 94.0178 34.6035 94.037 31.5737C94.0178 29.426 92.5987 28.1507 89.6648 27.5851L86.8267 27.0481C85.5803 26.7988 85.1776 26.3578 85.1872 25.7921C85.1776 25.0442 86.0501 24.584 87.1335 24.584C88.3704 24.584 89.2333 25.2456 89.3676 26.1756L93.6726 26.0605ZM102.78 36.5691C106.644 36.5691 109.184 34.6994 109.721 31.8038L105.416 31.6792C105.052 32.6571 104.093 33.1845 102.866 33.1845C101.063 33.1845 99.951 31.986 99.951 30.1834V30.0588H109.769V28.889C109.769 24.0375 106.816 21.372 102.636 21.372C98.1868 21.372 95.3296 24.421 95.3296 28.9849C95.3296 33.7022 98.1485 36.5691 102.78 36.5691ZM99.951 27.3358C100.018 25.8688 101.178 24.7566 102.732 24.7566C104.275 24.7566 105.387 25.8304 105.407 27.3358H99.951ZM117.86 36.291H122.741L130.689 20.5091V16.6547H116.518V20.4803H125.78V20.6049L117.86 36.291ZM141.925 16.6547H137.524L132.682 19.6653V23.769L137.073 21.0843H137.188V36.291H141.925V16.6547Z" fill="#7D56A5"/>
</svg>
