<svg width="108" height="36" viewBox="0 0 108 36" fill="none" xmlns="http://www.w3.org/2000/svg">
<path d="M2.88696 6.86035C2.88696 4.65121 4.67782 2.86035 6.88696 2.86035H100.887C103.096 2.86035 104.887 4.65121 104.887 6.86035V28.8604C104.887 31.0695 103.096 32.8604 100.887 32.8604H6.88696C4.67782 32.8604 2.88696 31.0695 2.88696 28.8604V6.86035Z" fill="black" fill-opacity="0.05"/>
<mask id="mask0_25_25863" style="mask-type:alpha" maskUnits="userSpaceOnUse" x="0" y="0" width="108" height="36">
<rect width="108" height="36" fill="#C4C4C4"/>
</mask>
<g mask="url(#mask0_25_25863)">
<path d="M17.3147 2.80935C20.1342 1.60898 23.201 3.89483 22.8562 6.93975L21.1347 22.1432C20.7874 25.2102 17.2444 26.7449 14.7696 24.9003L2.41326 15.6903C-0.0615362 13.8457 0.396908 10.0119 3.23687 8.80286L17.3147 2.80935Z" fill="#B4B4B4"/>
</g>
<path d="M23.1021 16.5123C22.7825 13.3802 20.4494 11.5905 17.2854 11.5905C13.7953 11.5905 11.0787 13.9875 11.0787 18.3149C11.0787 22.6231 13.7314 25.0393 17.2854 25.0393C20.8777 25.0393 22.8656 22.5976 23.1021 20.2773L19.9061 20.2581C19.6824 21.5173 18.7364 22.2652 17.3493 22.2652C15.4828 22.2652 14.3067 20.9165 14.3067 18.3149C14.3067 15.8156 15.4573 14.3646 17.3685 14.3646C18.8067 14.3646 19.7463 15.202 19.9061 16.5123H23.1021ZM29.1958 25.0457C32.2831 25.0457 34.156 23.0067 34.156 19.9832C34.156 16.9534 32.2831 14.9143 29.1958 14.9143C26.1084 14.9143 24.2356 16.9534 24.2356 19.9832C24.2356 23.0067 26.1084 25.0457 29.1958 25.0457ZM29.215 22.6871C28.058 22.6871 27.4188 21.5876 27.4188 19.964C27.4188 18.3341 28.058 17.2282 29.215 17.2282C30.3336 17.2282 30.9728 18.3341 30.9728 19.964C30.9728 21.5876 30.3336 22.6871 29.215 22.6871ZM41.7917 20.6224C41.7917 21.7666 41.063 22.4058 40.1362 22.4058C39.1774 22.4058 38.5893 21.7538 38.5829 20.6863V15.0422H35.4572V21.3C35.4636 23.518 36.8123 24.9882 38.8322 24.9882C40.3024 24.9882 41.3954 24.2339 41.8301 23.0322H41.9324V24.8604H44.9111V15.0422H41.7917V20.6224ZM46.6006 24.8604H49.7263V19.5294C49.7263 18.3596 50.5573 17.5734 51.6759 17.5734C52.0466 17.5734 52.6027 17.6373 52.9031 17.7396V15.023C52.6411 14.9527 52.3151 14.9079 52.0274 14.9079C50.9536 14.9079 50.097 15.5344 49.7391 16.8319H49.6368V15.0422H46.6006V24.8604ZM62.4485 18.04C62.2823 16.0969 60.6907 14.9143 58.0316 14.9143C55.3725 14.9143 53.6786 16.0713 53.6914 18.04C53.6786 19.5486 54.6438 20.5202 56.6062 20.8845L58.3192 21.2105C59.131 21.3703 59.5018 21.626 59.5145 22.0606C59.5018 22.5528 58.952 22.8788 58.153 22.8788C57.2645 22.8788 56.6637 22.4953 56.5295 21.7794L53.4421 21.8561C53.6658 23.7993 55.3341 25.0457 58.1402 25.0457C60.7674 25.0457 62.6786 23.7354 62.6914 21.7155C62.6786 20.2836 61.7326 19.4335 59.7766 19.0564L57.8846 18.6984C57.0536 18.5322 56.7851 18.2382 56.7915 17.8611C56.7851 17.3625 57.3668 17.0557 58.0891 17.0557C58.9137 17.0557 59.489 17.4967 59.5785 18.1167L62.4485 18.04ZM68.5198 25.0457C71.0958 25.0457 72.7896 23.7993 73.1476 21.8689L70.2776 21.7858C70.0347 22.4378 69.3955 22.7893 68.5773 22.7893C67.3756 22.7893 66.6341 21.9903 66.6341 20.7886V20.7055H73.1796V19.9257C73.1796 16.6913 71.2108 14.9143 68.4239 14.9143C65.458 14.9143 63.5531 16.947 63.5531 19.9896C63.5531 23.1345 65.4324 25.0457 68.5198 25.0457ZM66.6341 18.8902C66.6788 17.9122 67.4523 17.1707 68.4878 17.1707C69.5169 17.1707 70.2584 17.8866 70.2712 18.8902H66.6341ZM78.5737 24.8604H81.8273L87.1263 14.339V11.7694H77.6788V14.3199H83.8535V14.403L78.5737 24.8604ZM94.6166 11.7694H91.6826L88.4546 13.7765V16.5123L91.3822 14.7226H91.4589V24.8604H94.6166V11.7694Z" fill="white"/>
</svg>
