<svg width="15" height="15" viewBox="0 0 15 15" fill="none" xmlns="http://www.w3.org/2000/svg">
<path d="M6.94981 2.56856C7.15158 1.92181 8.02794 1.92181 8.22903 2.56856L8.94868 4.88028C8.99265 5.02106 9.07812 5.14374 9.19287 5.23076C9.30763 5.31778 9.44579 5.3647 9.58762 5.36481H11.9161C12.5678 5.36481 12.8381 6.23557 12.3115 6.63584L10.4283 8.06416C10.3133 8.15126 10.2277 8.27413 10.1837 8.41517C10.1398 8.5562 10.1397 8.70816 10.1835 8.84924L10.9032 11.161C11.1049 11.8077 10.3954 12.3463 9.86741 11.9461L7.98422 10.5177C7.86935 10.4307 7.73104 10.3838 7.58909 10.3838C7.44713 10.3838 7.30882 10.4307 7.19395 10.5177L5.31076 11.9461C4.78347 12.3463 4.07458 11.8077 4.27568 11.161L4.99533 8.84924C5.03916 8.70816 5.03908 8.5562 4.9951 8.41517C4.95112 8.27413 4.8655 8.15126 4.75051 8.06416L2.868 6.63654C2.34138 6.23627 2.61242 5.36551 3.26347 5.36551H5.59122C5.73317 5.36555 5.87148 5.3187 5.98637 5.23167C6.10126 5.14463 6.18683 5.02188 6.23084 4.88098L6.95048 2.56926L6.94981 2.56856Z" fill="#F2B807"/>
</svg>
