<svg width="11" height="11" viewBox="0 0 11 11" fill="none" xmlns="http://www.w3.org/2000/svg">
<path d="M5.23191 0.568557C5.43368 -0.0781909 6.31004 -0.0781909 6.51114 0.568557L7.23079 2.88028C7.27475 3.02106 7.36022 3.14374 7.47498 3.23076C7.58973 3.31778 7.7279 3.3647 7.86973 3.36481H10.1982C10.8499 3.36481 11.1202 4.23557 10.5936 4.63584L8.71043 6.06416C8.59545 6.15126 8.50982 6.27413 8.46584 6.41517C8.42186 6.5562 8.42179 6.70816 8.46562 6.84924L9.18527 9.16096C9.38704 9.80771 8.67748 10.3463 8.14951 9.94605L6.26632 8.51773C6.15145 8.43065 6.01314 8.38376 5.87119 8.38376C5.72924 8.38376 5.59093 8.43065 5.47606 8.51773L3.59287 9.94605C3.06557 10.3463 2.35669 9.80771 2.55778 9.16096L3.27743 6.84924C3.32127 6.70816 3.32119 6.5562 3.27721 6.41517C3.23323 6.27413 3.14761 6.15126 3.03262 6.06416L1.1501 4.63654C0.62348 4.23627 0.894525 3.36551 1.54557 3.36551H3.87333C4.01527 3.36555 4.15359 3.3187 4.26848 3.23167C4.38337 3.14463 4.46894 3.02188 4.51294 2.88098L5.23259 0.569259L5.23191 0.568557Z" fill="#A0AEC0"/>
</svg>
