<svg width="53" height="92" viewBox="0 0 53 92" fill="none" xmlns="http://www.w3.org/2000/svg">
<path d="M39.9336 1.89045L44.3533 8.7106C33.795 14.6932 27.3041 21.5127 23.2282 28.1369C18.9787 35.0434 17.406 41.6554 16.5189 46.6914L15.9929 49.6778L18.6858 48.2837C21.9662 46.5854 26.3759 45.9482 30.7978 46.3589L30.7983 46.3589C42.163 47.411 51.0776 56.7296 51.0776 68.2707C51.0776 74.0999 48.762 79.6904 44.6401 83.8123C40.5182 87.9342 34.9277 90.2499 29.0985 90.2499C22.3328 90.2499 15.8396 87.1475 11.7561 82.8125C5.12228 75.7665 1.54468 67.9091 1.54468 54.9278C1.54468 32.5635 17.006 12.2845 39.9336 1.89045Z" fill="black" fill-opacity="0.2" stroke="#EBEBEB" stroke-width="3"/>
</svg>
